<mxfile host="app.diagrams.net" modified="2023-04-05T13:16:42.214Z" agent="Mozilla/5.0 (Windows NT 10.0; Win64; x64) AppleWebKit/537.36 (KHTML, like Gecko) Chrome/111.0.0.0 Safari/537.36" etag="9FavigWT1RdD1340hA9s" version="21.1.4" type="google">
  <diagram id="C5RBs43oDa-KdzZeNtuy" name="Page-1">
    <mxGraphModel grid="1" page="1" gridSize="10" guides="1" tooltips="1" connect="1" arrows="1" fold="1" pageScale="1" pageWidth="827" pageHeight="1169" math="0" shadow="0">
      <root>
        <mxCell id="WIyWlLk6GJQsqaUBKTNV-0" />
        <mxCell id="WIyWlLk6GJQsqaUBKTNV-1" parent="WIyWlLk6GJQsqaUBKTNV-0" />
        <mxCell id="1DCHsbxEpsTcMKDt2C7S-5" value="" style="edgeStyle=orthogonalEdgeStyle;rounded=0;orthogonalLoop=1;jettySize=auto;html=1;" edge="1" parent="WIyWlLk6GJQsqaUBKTNV-1" source="WIyWlLk6GJQsqaUBKTNV-3" target="1DCHsbxEpsTcMKDt2C7S-0">
          <mxGeometry relative="1" as="geometry" />
        </mxCell>
        <mxCell id="WIyWlLk6GJQsqaUBKTNV-3" value="Inicio&amp;nbsp;" style="rounded=1;whiteSpace=wrap;html=1;fontSize=12;glass=0;strokeWidth=1;shadow=0;" vertex="1" parent="WIyWlLk6GJQsqaUBKTNV-1">
          <mxGeometry x="230" y="-584" width="120" height="40" as="geometry" />
        </mxCell>
        <mxCell id="inP9x0B0_0iAsiEy2gSq-5" value="" style="edgeStyle=orthogonalEdgeStyle;rounded=0;orthogonalLoop=1;jettySize=auto;html=1;" edge="1" parent="WIyWlLk6GJQsqaUBKTNV-1" source="WIyWlLk6GJQsqaUBKTNV-7" target="inP9x0B0_0iAsiEy2gSq-3">
          <mxGeometry relative="1" as="geometry" />
        </mxCell>
        <mxCell id="WIyWlLk6GJQsqaUBKTNV-7" value="Pergunta de texto&lt;br&gt;&quot;Quero fazer um seguro pra minha bike&quot;" style="rounded=1;whiteSpace=wrap;html=1;fontSize=12;glass=0;strokeWidth=1;shadow=0;" vertex="1" parent="WIyWlLk6GJQsqaUBKTNV-1">
          <mxGeometry x="230" y="-390" width="120" height="55" as="geometry" />
        </mxCell>
        <mxCell id="1DCHsbxEpsTcMKDt2C7S-6" value="" style="edgeStyle=orthogonalEdgeStyle;rounded=0;orthogonalLoop=1;jettySize=auto;html=1;" edge="1" parent="WIyWlLk6GJQsqaUBKTNV-1" source="1DCHsbxEpsTcMKDt2C7S-0" target="WIyWlLk6GJQsqaUBKTNV-7">
          <mxGeometry relative="1" as="geometry" />
        </mxCell>
        <mxCell id="1DCHsbxEpsTcMKDt2C7S-0" value="Mensagem de texto&amp;nbsp;&lt;br&gt;Olá, Somos da Porto,como posso te ajudar?" style="rounded=1;whiteSpace=wrap;html=1;" vertex="1" parent="WIyWlLk6GJQsqaUBKTNV-1">
          <mxGeometry x="230" y="-480" width="120" height="60" as="geometry" />
        </mxCell>
        <mxCell id="c0PES-551qfKgoyKL2rc-6" value="" style="edgeStyle=orthogonalEdgeStyle;rounded=0;orthogonalLoop=1;jettySize=auto;html=1;" edge="1" parent="WIyWlLk6GJQsqaUBKTNV-1" source="1DCHsbxEpsTcMKDt2C7S-9" target="1DCHsbxEpsTcMKDt2C7S-15">
          <mxGeometry relative="1" as="geometry" />
        </mxCell>
        <mxCell id="1DCHsbxEpsTcMKDt2C7S-9" value="Mensagem de texto&lt;br&gt;&quot;Você poderia me dizer qual é o numero de série da sua bike?&quot;" style="whiteSpace=wrap;html=1;rounded=1;glass=0;strokeWidth=1;shadow=0;" vertex="1" parent="WIyWlLk6GJQsqaUBKTNV-1">
          <mxGeometry x="230" y="250" width="120" height="70" as="geometry" />
        </mxCell>
        <mxCell id="1DCHsbxEpsTcMKDt2C7S-12" value="" style="endArrow=classic;html=1;rounded=0;" edge="1" parent="WIyWlLk6GJQsqaUBKTNV-1">
          <mxGeometry width="50" height="50" relative="1" as="geometry">
            <mxPoint x="230" y="440" as="sourcePoint" />
            <mxPoint x="200" y="470" as="targetPoint" />
          </mxGeometry>
        </mxCell>
        <mxCell id="1DCHsbxEpsTcMKDt2C7S-23" value="" style="edgeStyle=orthogonalEdgeStyle;rounded=0;orthogonalLoop=1;jettySize=auto;html=1;" edge="1" parent="WIyWlLk6GJQsqaUBKTNV-1" source="1DCHsbxEpsTcMKDt2C7S-13" target="1DCHsbxEpsTcMKDt2C7S-22">
          <mxGeometry relative="1" as="geometry" />
        </mxCell>
        <mxCell id="1DCHsbxEpsTcMKDt2C7S-13" value="Resposta de texto&lt;br&gt;&quot;Não tenho o número de série&quot;&amp;nbsp;&lt;br&gt;&lt;span style=&quot;white-space: pre;&quot;&gt; &lt;/span&gt;" style="whiteSpace=wrap;html=1;rounded=1;glass=0;strokeWidth=1;shadow=0;" vertex="1" parent="WIyWlLk6GJQsqaUBKTNV-1">
          <mxGeometry x="80" y="470" width="120" height="60" as="geometry" />
        </mxCell>
        <mxCell id="1DCHsbxEpsTcMKDt2C7S-18" value="" style="edgeStyle=orthogonalEdgeStyle;rounded=0;orthogonalLoop=1;jettySize=auto;html=1;" edge="1" parent="WIyWlLk6GJQsqaUBKTNV-1" source="1DCHsbxEpsTcMKDt2C7S-15" target="1DCHsbxEpsTcMKDt2C7S-17">
          <mxGeometry relative="1" as="geometry" />
        </mxCell>
        <mxCell id="1DCHsbxEpsTcMKDt2C7S-15" value="Resposta de texto&lt;br style=&quot;border-color: var(--border-color);&quot;&gt;&quot;Número de série&quot;" style="whiteSpace=wrap;html=1;rounded=1;glass=0;strokeWidth=1;shadow=0;" vertex="1" parent="WIyWlLk6GJQsqaUBKTNV-1">
          <mxGeometry x="230" y="380" width="120" height="60" as="geometry" />
        </mxCell>
        <mxCell id="1DCHsbxEpsTcMKDt2C7S-20" value="" style="edgeStyle=orthogonalEdgeStyle;rounded=0;orthogonalLoop=1;jettySize=auto;html=1;" edge="1" parent="WIyWlLk6GJQsqaUBKTNV-1" source="1DCHsbxEpsTcMKDt2C7S-17" target="1DCHsbxEpsTcMKDt2C7S-19">
          <mxGeometry relative="1" as="geometry" />
        </mxCell>
        <mxCell id="1DCHsbxEpsTcMKDt2C7S-17" value="Mensagem de texto&lt;br&gt;&quot;Ouve alteração na bicicleta?(modificação)&quot;" style="whiteSpace=wrap;html=1;rounded=1;glass=0;strokeWidth=1;shadow=0;" vertex="1" parent="WIyWlLk6GJQsqaUBKTNV-1">
          <mxGeometry x="230" y="525" width="120" height="60" as="geometry" />
        </mxCell>
        <mxCell id="1DCHsbxEpsTcMKDt2C7S-35" value="" style="edgeStyle=orthogonalEdgeStyle;rounded=0;orthogonalLoop=1;jettySize=auto;html=1;entryX=0.5;entryY=0;entryDx=0;entryDy=0;" edge="1" parent="WIyWlLk6GJQsqaUBKTNV-1" source="1DCHsbxEpsTcMKDt2C7S-19" target="1DCHsbxEpsTcMKDt2C7S-40">
          <mxGeometry relative="1" as="geometry">
            <mxPoint x="290" y="910" as="targetPoint" />
          </mxGeometry>
        </mxCell>
        <mxCell id="1DCHsbxEpsTcMKDt2C7S-19" value="Mensagem de texto&lt;br&gt;&quot;Envie o comprovante, de forma legivel por gentileza&quot;" style="whiteSpace=wrap;html=1;rounded=1;glass=0;strokeWidth=1;shadow=0;" vertex="1" parent="WIyWlLk6GJQsqaUBKTNV-1">
          <mxGeometry x="230" y="740" width="120" height="70" as="geometry" />
        </mxCell>
        <mxCell id="1DCHsbxEpsTcMKDt2C7S-22" value="Mensagem de texto&lt;br&gt;&quot;Caso não informe o número, não conseguimos seguir o procedimento" style="whiteSpace=wrap;html=1;rounded=1;glass=0;strokeWidth=1;shadow=0;" vertex="1" parent="WIyWlLk6GJQsqaUBKTNV-1">
          <mxGeometry x="80" y="560" width="120" height="70" as="geometry" />
        </mxCell>
        <mxCell id="1DCHsbxEpsTcMKDt2C7S-25" value="" style="endArrow=classic;html=1;rounded=0;entryX=0;entryY=0;entryDx=0;entryDy=0;exitX=1;exitY=1;exitDx=0;exitDy=0;" edge="1" parent="WIyWlLk6GJQsqaUBKTNV-1" source="1DCHsbxEpsTcMKDt2C7S-17" target="1DCHsbxEpsTcMKDt2C7S-26">
          <mxGeometry width="50" height="50" relative="1" as="geometry">
            <mxPoint x="360" y="680" as="sourcePoint" />
            <mxPoint x="380" y="650" as="targetPoint" />
            <Array as="points" />
          </mxGeometry>
        </mxCell>
        <mxCell id="1DCHsbxEpsTcMKDt2C7S-26" value="Resposta de texo&lt;br&gt;&quot;Sim,(informar as alteraçoes)&quot;" style="whiteSpace=wrap;html=1;rounded=1;glass=0;strokeWidth=1;shadow=0;" vertex="1" parent="WIyWlLk6GJQsqaUBKTNV-1">
          <mxGeometry x="380" y="640" width="120" height="60" as="geometry" />
        </mxCell>
        <mxCell id="1DCHsbxEpsTcMKDt2C7S-28" value="" style="endArrow=classic;html=1;rounded=0;exitX=0.067;exitY=0.983;exitDx=0;exitDy=0;exitPerimeter=0;entryX=1;entryY=0;entryDx=0;entryDy=0;" edge="1" parent="WIyWlLk6GJQsqaUBKTNV-1" source="1DCHsbxEpsTcMKDt2C7S-17" target="1DCHsbxEpsTcMKDt2C7S-29">
          <mxGeometry width="50" height="50" relative="1" as="geometry">
            <mxPoint x="230" y="620" as="sourcePoint" />
            <mxPoint x="210" y="660" as="targetPoint" />
            <Array as="points" />
          </mxGeometry>
        </mxCell>
        <mxCell id="1DCHsbxEpsTcMKDt2C7S-29" value="Resposta de texo&lt;br&gt;&quot;Não.&quot;" style="whiteSpace=wrap;html=1;rounded=1;glass=0;strokeWidth=1;shadow=0;" vertex="1" parent="WIyWlLk6GJQsqaUBKTNV-1">
          <mxGeometry x="90" y="660" width="120" height="60" as="geometry" />
        </mxCell>
        <mxCell id="1DCHsbxEpsTcMKDt2C7S-32" value="" style="endArrow=classic;html=1;rounded=0;exitX=1;exitY=1;exitDx=0;exitDy=0;entryX=0;entryY=0;entryDx=0;entryDy=0;" edge="1" parent="WIyWlLk6GJQsqaUBKTNV-1" source="1DCHsbxEpsTcMKDt2C7S-29" target="1DCHsbxEpsTcMKDt2C7S-19">
          <mxGeometry width="50" height="50" relative="1" as="geometry">
            <mxPoint x="260" y="810" as="sourcePoint" />
            <mxPoint x="310" y="760" as="targetPoint" />
          </mxGeometry>
        </mxCell>
        <mxCell id="1DCHsbxEpsTcMKDt2C7S-33" value="" style="endArrow=classic;html=1;rounded=0;exitX=0;exitY=1;exitDx=0;exitDy=0;entryX=1;entryY=0;entryDx=0;entryDy=0;" edge="1" parent="WIyWlLk6GJQsqaUBKTNV-1" source="1DCHsbxEpsTcMKDt2C7S-26" target="1DCHsbxEpsTcMKDt2C7S-19">
          <mxGeometry width="50" height="50" relative="1" as="geometry">
            <mxPoint x="260" y="810" as="sourcePoint" />
            <mxPoint x="310" y="760" as="targetPoint" />
          </mxGeometry>
        </mxCell>
        <mxCell id="1DCHsbxEpsTcMKDt2C7S-38" value="" style="endArrow=classic;html=1;rounded=0;exitX=0.017;exitY=0.883;exitDx=0;exitDy=0;exitPerimeter=0;entryX=1;entryY=0;entryDx=0;entryDy=0;" edge="1" parent="WIyWlLk6GJQsqaUBKTNV-1" source="1DCHsbxEpsTcMKDt2C7S-19" target="1DCHsbxEpsTcMKDt2C7S-39">
          <mxGeometry width="50" height="50" relative="1" as="geometry">
            <mxPoint x="230" y="850" as="sourcePoint" />
            <mxPoint x="200" y="890" as="targetPoint" />
          </mxGeometry>
        </mxCell>
        <mxCell id="1DCHsbxEpsTcMKDt2C7S-39" value="Mensagem de texto&lt;br&gt;&quot;Caso não envie o comprovante não conseguimos seguir o procedimento&quot;" style="whiteSpace=wrap;html=1;rounded=1;glass=0;strokeWidth=1;shadow=0;" vertex="1" parent="WIyWlLk6GJQsqaUBKTNV-1">
          <mxGeometry x="80" y="850" width="120" height="70" as="geometry" />
        </mxCell>
        <mxCell id="1DCHsbxEpsTcMKDt2C7S-42" value="" style="edgeStyle=orthogonalEdgeStyle;rounded=0;orthogonalLoop=1;jettySize=auto;html=1;" edge="1" parent="WIyWlLk6GJQsqaUBKTNV-1" source="1DCHsbxEpsTcMKDt2C7S-40" target="1DCHsbxEpsTcMKDt2C7S-41">
          <mxGeometry relative="1" as="geometry" />
        </mxCell>
        <mxCell id="1DCHsbxEpsTcMKDt2C7S-40" value="Resposta em arquivo&lt;br&gt;&quot;foto do comprovante&quot;&lt;br&gt;" style="whiteSpace=wrap;html=1;rounded=1;glass=0;strokeWidth=1;shadow=0;" vertex="1" parent="WIyWlLk6GJQsqaUBKTNV-1">
          <mxGeometry x="230" y="870" width="120" height="70" as="geometry" />
        </mxCell>
        <mxCell id="1DCHsbxEpsTcMKDt2C7S-54" value="" style="edgeStyle=orthogonalEdgeStyle;rounded=0;orthogonalLoop=1;jettySize=auto;html=1;" edge="1" parent="WIyWlLk6GJQsqaUBKTNV-1" source="1DCHsbxEpsTcMKDt2C7S-41" target="1DCHsbxEpsTcMKDt2C7S-45">
          <mxGeometry relative="1" as="geometry" />
        </mxCell>
        <mxCell id="1DCHsbxEpsTcMKDt2C7S-41" value="Mensagem de texto&lt;br&gt;&quot;Certo, agurde um momento, estamos validando a imagem&quot;" style="whiteSpace=wrap;html=1;rounded=1;glass=0;strokeWidth=1;shadow=0;" vertex="1" parent="WIyWlLk6GJQsqaUBKTNV-1">
          <mxGeometry x="230" y="980" width="120" height="60" as="geometry" />
        </mxCell>
        <mxCell id="1DCHsbxEpsTcMKDt2C7S-56" value="" style="edgeStyle=orthogonalEdgeStyle;rounded=0;orthogonalLoop=1;jettySize=auto;html=1;" edge="1" parent="WIyWlLk6GJQsqaUBKTNV-1" source="1DCHsbxEpsTcMKDt2C7S-45" target="1DCHsbxEpsTcMKDt2C7S-55">
          <mxGeometry relative="1" as="geometry" />
        </mxCell>
        <mxCell id="1DCHsbxEpsTcMKDt2C7S-45" value="Mensagem de texto&lt;br&gt;&quot;Tudo certo, acesse essa pagina para proseguir seu seguro(link)&quot;" style="whiteSpace=wrap;html=1;rounded=1;glass=0;strokeWidth=1;shadow=0;" vertex="1" parent="WIyWlLk6GJQsqaUBKTNV-1">
          <mxGeometry x="230" y="1110" width="120" height="70" as="geometry" />
        </mxCell>
        <mxCell id="1DCHsbxEpsTcMKDt2C7S-47" value="" style="endArrow=classic;html=1;rounded=0;exitX=0;exitY=1;exitDx=0;exitDy=0;entryX=1;entryY=0;entryDx=0;entryDy=0;" edge="1" parent="WIyWlLk6GJQsqaUBKTNV-1" source="1DCHsbxEpsTcMKDt2C7S-41" target="1DCHsbxEpsTcMKDt2C7S-49">
          <mxGeometry width="50" height="50" relative="1" as="geometry">
            <mxPoint x="260" y="1060" as="sourcePoint" />
            <mxPoint x="190" y="1170" as="targetPoint" />
          </mxGeometry>
        </mxCell>
        <mxCell id="1DCHsbxEpsTcMKDt2C7S-49" value="Mensagem de texto&lt;br&gt;&quot;Desculpas não conseguimos validar sua imagem &quot;" style="whiteSpace=wrap;html=1;rounded=1;glass=0;strokeWidth=1;shadow=0;" vertex="1" parent="WIyWlLk6GJQsqaUBKTNV-1">
          <mxGeometry x="70" y="1080" width="120" height="60" as="geometry" />
        </mxCell>
        <mxCell id="1DCHsbxEpsTcMKDt2C7S-55" value="Fim" style="whiteSpace=wrap;html=1;rounded=1;glass=0;strokeWidth=1;shadow=0;" vertex="1" parent="WIyWlLk6GJQsqaUBKTNV-1">
          <mxGeometry x="230" y="1230" width="120" height="60" as="geometry" />
        </mxCell>
        <mxCell id="1DCHsbxEpsTcMKDt2C7S-57" value="" style="endArrow=classic;html=1;rounded=0;exitX=1;exitY=1;exitDx=0;exitDy=0;entryX=0;entryY=0;entryDx=0;entryDy=0;" edge="1" parent="WIyWlLk6GJQsqaUBKTNV-1" source="1DCHsbxEpsTcMKDt2C7S-49" target="1DCHsbxEpsTcMKDt2C7S-55">
          <mxGeometry width="50" height="50" relative="1" as="geometry">
            <mxPoint x="260" y="1200" as="sourcePoint" />
            <mxPoint x="130" y="1310" as="targetPoint" />
          </mxGeometry>
        </mxCell>
        <mxCell id="c0PES-551qfKgoyKL2rc-10" value="" style="edgeStyle=orthogonalEdgeStyle;rounded=0;orthogonalLoop=1;jettySize=auto;html=1;" edge="1" parent="WIyWlLk6GJQsqaUBKTNV-1" source="c0PES-551qfKgoyKL2rc-7" target="c0PES-551qfKgoyKL2rc-9">
          <mxGeometry relative="1" as="geometry" />
        </mxCell>
        <mxCell id="c0PES-551qfKgoyKL2rc-7" value="Mensagem de texto&lt;br&gt;&quot;Você poderia me dizer qual é o estilo e o modelo da sua bike?&quot;" style="whiteSpace=wrap;html=1;rounded=1;glass=0;strokeWidth=1;shadow=0;" vertex="1" parent="WIyWlLk6GJQsqaUBKTNV-1">
          <mxGeometry x="230" y="20" width="120" height="70" as="geometry" />
        </mxCell>
        <mxCell id="c0PES-551qfKgoyKL2rc-11" value="" style="edgeStyle=orthogonalEdgeStyle;rounded=0;orthogonalLoop=1;jettySize=auto;html=1;" edge="1" parent="WIyWlLk6GJQsqaUBKTNV-1" source="c0PES-551qfKgoyKL2rc-9" target="1DCHsbxEpsTcMKDt2C7S-9">
          <mxGeometry relative="1" as="geometry" />
        </mxCell>
        <mxCell id="c0PES-551qfKgoyKL2rc-9" value="Resposta de texto&lt;br&gt;&quot;Modelo da bike&quot;" style="whiteSpace=wrap;html=1;rounded=1;glass=0;strokeWidth=1;shadow=0;" vertex="1" parent="WIyWlLk6GJQsqaUBKTNV-1">
          <mxGeometry x="230" y="120" width="120" height="70" as="geometry" />
        </mxCell>
        <mxCell id="c0PES-551qfKgoyKL2rc-14" value="Mensagem de texto&lt;br&gt;&quot;Não tenho meu modelo de bike&quot;" style="whiteSpace=wrap;html=1;rounded=1;glass=0;strokeWidth=1;shadow=0;" vertex="1" parent="WIyWlLk6GJQsqaUBKTNV-1">
          <mxGeometry x="60" y="200" width="120" height="70" as="geometry" />
        </mxCell>
        <mxCell id="c0PES-551qfKgoyKL2rc-15" value="" style="endArrow=classic;html=1;rounded=0;entryX=1.021;entryY=0.093;entryDx=0;entryDy=0;entryPerimeter=0;exitX=0;exitY=1;exitDx=0;exitDy=0;" edge="1" parent="WIyWlLk6GJQsqaUBKTNV-1" source="c0PES-551qfKgoyKL2rc-9" target="c0PES-551qfKgoyKL2rc-14">
          <mxGeometry width="50" height="50" relative="1" as="geometry">
            <mxPoint x="390" y="520" as="sourcePoint" />
            <mxPoint x="440" y="470" as="targetPoint" />
          </mxGeometry>
        </mxCell>
        <mxCell id="c0PES-551qfKgoyKL2rc-18" value="" style="endArrow=classic;html=1;rounded=0;exitX=1;exitY=1;exitDx=0;exitDy=0;entryX=-0.021;entryY=0.914;entryDx=0;entryDy=0;entryPerimeter=0;" edge="1" parent="WIyWlLk6GJQsqaUBKTNV-1" source="c0PES-551qfKgoyKL2rc-14" target="1DCHsbxEpsTcMKDt2C7S-9">
          <mxGeometry width="50" height="50" relative="1" as="geometry">
            <mxPoint x="390" y="270" as="sourcePoint" />
            <mxPoint x="440" y="220" as="targetPoint" />
          </mxGeometry>
        </mxCell>
        <mxCell id="inP9x0B0_0iAsiEy2gSq-6" value="" style="edgeStyle=orthogonalEdgeStyle;rounded=0;orthogonalLoop=1;jettySize=auto;html=1;" edge="1" parent="WIyWlLk6GJQsqaUBKTNV-1" source="inP9x0B0_0iAsiEy2gSq-9" target="c0PES-551qfKgoyKL2rc-7">
          <mxGeometry relative="1" as="geometry" />
        </mxCell>
        <mxCell id="inP9x0B0_0iAsiEy2gSq-16" value="" style="edgeStyle=orthogonalEdgeStyle;rounded=0;orthogonalLoop=1;jettySize=auto;html=1;" edge="1" parent="WIyWlLk6GJQsqaUBKTNV-1" source="inP9x0B0_0iAsiEy2gSq-3" target="inP9x0B0_0iAsiEy2gSq-9">
          <mxGeometry relative="1" as="geometry" />
        </mxCell>
        <mxCell id="inP9x0B0_0iAsiEy2gSq-3" value="Pergunta de texto&lt;br&gt;Você ja trm cadastro?" style="rhombus;whiteSpace=wrap;html=1;" vertex="1" parent="WIyWlLk6GJQsqaUBKTNV-1">
          <mxGeometry x="240" y="-290" width="100" height="90" as="geometry" />
        </mxCell>
        <mxCell id="inP9x0B0_0iAsiEy2gSq-9" value="Pergunta de texto&lt;br&gt;&quot;Quero fazer um seguro pra minha bike&quot;" style="rounded=1;whiteSpace=wrap;html=1;fontSize=12;glass=0;strokeWidth=1;shadow=0;" vertex="1" parent="WIyWlLk6GJQsqaUBKTNV-1">
          <mxGeometry x="230" y="-110" width="120" height="55" as="geometry" />
        </mxCell>
        <mxCell id="inP9x0B0_0iAsiEy2gSq-11" value="Mensagem de texto&lt;br&gt;&quot;Caso não tenha acesse esse (link) para criar uma conta &quot;" style="rounded=1;whiteSpace=wrap;html=1;fontSize=12;glass=0;strokeWidth=1;shadow=0;" vertex="1" parent="WIyWlLk6GJQsqaUBKTNV-1">
          <mxGeometry x="90" y="-190" width="120" height="55" as="geometry" />
        </mxCell>
        <mxCell id="inP9x0B0_0iAsiEy2gSq-15" value="" style="endArrow=classic;html=1;rounded=0;entryX=1;entryY=0;entryDx=0;entryDy=0;" edge="1" parent="WIyWlLk6GJQsqaUBKTNV-1" source="inP9x0B0_0iAsiEy2gSq-3" target="inP9x0B0_0iAsiEy2gSq-11">
          <mxGeometry width="50" height="50" relative="1" as="geometry">
            <mxPoint x="160" y="-190" as="sourcePoint" />
            <mxPoint x="210" y="-240" as="targetPoint" />
          </mxGeometry>
        </mxCell>
        <mxCell id="inP9x0B0_0iAsiEy2gSq-17" value="" style="endArrow=classic;html=1;rounded=0;entryX=0;entryY=0;entryDx=0;entryDy=0;exitX=1;exitY=1;exitDx=0;exitDy=0;" edge="1" parent="WIyWlLk6GJQsqaUBKTNV-1" source="inP9x0B0_0iAsiEy2gSq-11" target="inP9x0B0_0iAsiEy2gSq-9">
          <mxGeometry width="50" height="50" relative="1" as="geometry">
            <mxPoint x="170" y="-210" as="sourcePoint" />
            <mxPoint x="210" y="-240" as="targetPoint" />
          </mxGeometry>
        </mxCell>
      </root>
    </mxGraphModel>
  </diagram>
</mxfile>
